<?xml version="1.0" encoding="UTF-8"?>
<svg xmlns="http://www.w3.org/2000/svg" xmlns:xlink="http://www.w3.org/1999/xlink" width="px" height="px" viewBox="0 0 400 400" version="1.1">
<g id="surface1">
<path style=" stroke:none;fill-rule:nonzero;fill:rgb(33.333333%,33.333333%,33.333333%);fill-opacity:1;" d="M 379.4375 290.246094 C 387.152344 290.246094 393.410156 283.988281 393.410156 276.273438 C 393.410156 268.558594 387.152344 262.300781 379.4375 262.300781 L 290.941406 262.300781 L 290.941406 136.539062 L 379.4375 136.539062 C 387.152344 136.539062 393.410156 130.28125 393.410156 122.566406 C 393.410156 114.851562 387.152344 108.59375 379.4375 108.59375 L 290.941406 108.59375 L 290.941406 20.101562 C 290.941406 12.382812 284.683594 6.125 276.96875 6.125 C 269.25 6.125 262.996094 12.382812 262.996094 20.101562 L 262.996094 108.59375 L 137.238281 108.59375 L 137.238281 20.09375 C 137.238281 12.378906 130.980469 6.121094 123.261719 6.121094 C 115.546875 6.121094 109.289062 12.378906 109.289062 20.09375 L 109.289062 108.59375 L 20.789062 108.59375 C 13.074219 108.59375 6.816406 114.851562 6.816406 122.566406 C 6.816406 130.285156 13.074219 136.539062 20.789062 136.539062 L 109.289062 136.539062 L 109.289062 262.300781 L 20.789062 262.300781 C 13.074219 262.300781 6.816406 268.558594 6.816406 276.273438 C 6.816406 283.988281 13.074219 290.246094 20.789062 290.246094 L 109.289062 290.246094 L 109.289062 378.738281 C 109.289062 386.457031 115.546875 392.714844 123.261719 392.714844 C 130.980469 392.714844 137.238281 386.457031 137.238281 378.738281 L 137.238281 290.246094 L 262.996094 290.246094 L 262.996094 378.746094 C 262.996094 386.460938 269.25 392.71875 276.96875 392.71875 C 284.683594 392.71875 290.941406 386.460938 290.941406 378.746094 L 290.941406 290.246094 Z M 137.238281 262.300781 L 137.238281 136.539062 L 262.996094 136.539062 L 262.996094 262.300781 Z M 137.238281 262.300781 "/>
<path style=" stroke:none;fill-rule:nonzero;fill:rgb(33.333333%,33.333333%,33.333333%);fill-opacity:1;" d="M 24.261719 93.441406 L 46.402344 71.292969 L 68.542969 93.441406 C 71.273438 96.167969 74.847656 97.535156 78.421875 97.535156 C 82 97.535156 85.574219 96.167969 88.300781 93.441406 C 93.761719 87.988281 93.761719 79.140625 88.300781 73.683594 L 66.164062 51.535156 L 88.300781 29.386719 C 93.761719 23.925781 93.761719 15.078125 88.300781 9.628906 C 82.84375 4.167969 74 4.167969 68.542969 9.628906 L 46.402344 31.773438 L 24.261719 9.628906 C 18.804688 4.167969 9.960938 4.167969 4.503906 9.628906 C -0.957031 15.078125 -0.957031 23.929688 4.503906 29.386719 L 26.644531 51.535156 L 4.503906 73.679688 C -0.957031 79.140625 -0.957031 87.988281 4.503906 93.4375 C 7.230469 96.167969 10.808594 97.53125 14.382812 97.53125 C 17.957031 97.535156 21.53125 96.167969 24.261719 93.441406 Z M 24.261719 93.441406 "/>
<path style=" stroke:none;fill-rule:nonzero;fill:rgb(33.333333%,33.333333%,33.333333%);fill-opacity:1;" d="M 219.871094 199.421875 L 242.011719 177.273438 C 247.46875 171.8125 247.46875 162.964844 242.011719 157.515625 C 236.554688 152.054688 227.710938 152.054688 222.253906 157.515625 L 200.113281 179.660156 L 177.96875 157.515625 C 172.511719 152.054688 163.667969 152.054688 158.210938 157.515625 C 152.753906 162.964844 152.753906 171.816406 158.210938 177.273438 L 180.351562 199.421875 L 158.210938 221.566406 C 152.753906 227.027344 152.753906 235.875 158.210938 241.324219 C 160.941406 244.054688 164.515625 245.421875 168.09375 245.421875 C 171.667969 245.421875 175.242188 244.054688 177.972656 241.324219 L 200.113281 219.179688 L 222.253906 241.324219 C 224.980469 244.054688 228.558594 245.421875 232.132812 245.421875 C 235.710938 245.421875 239.28125 244.054688 242.011719 241.324219 C 247.472656 235.875 247.472656 227.027344 242.011719 221.566406 Z M 219.871094 199.421875 "/>
<path style=" stroke:none;fill-rule:nonzero;fill:rgb(33.333333%,33.333333%,33.333333%);fill-opacity:1;" d="M 200.109375 103.066406 C 228.527344 103.066406 251.640625 79.953125 251.640625 51.535156 C 251.640625 23.117188 228.527344 0 200.109375 0 C 171.691406 0 148.574219 23.117188 148.574219 51.535156 C 148.574219 79.949219 171.691406 103.066406 200.109375 103.066406 Z M 200.109375 27.945312 C 213.113281 27.945312 223.695312 38.527344 223.695312 51.535156 C 223.695312 64.539062 213.113281 75.121094 200.109375 75.121094 C 187.105469 75.121094 176.523438 64.539062 176.523438 51.535156 C 176.523438 38.527344 187.105469 27.945312 200.109375 27.945312 Z M 200.109375 27.945312 "/>
<path style=" stroke:none;fill-rule:nonzero;fill:rgb(33.333333%,33.333333%,33.333333%);fill-opacity:1;" d="M 348.058594 296.933594 C 319.640625 296.933594 296.523438 320.046875 296.523438 348.464844 C 296.523438 376.882812 319.640625 400 348.058594 400 C 376.472656 400 399.589844 376.882812 399.589844 348.464844 C 399.589844 320.046875 376.472656 296.933594 348.058594 296.933594 Z M 348.058594 372.054688 C 335.050781 372.054688 324.46875 361.472656 324.46875 348.464844 C 324.46875 335.460938 335.050781 324.878906 348.058594 324.878906 C 361.0625 324.878906 371.644531 335.460938 371.644531 348.464844 C 371.644531 361.472656 361.0625 372.054688 348.058594 372.054688 Z M 348.058594 372.054688 "/>
</g>
</svg>
